# xmcd
#
# Track frame offsets: 
#        150
#        17451
#        35765
#        48517
#        67094
#        84238
#        102919
#        119989
#        135391
#        152231
#
# Disc length: 2261 seconds
#
# Revision: 0
# Processed by: cddbd v1.5.2PL0 Copyright (c) Steve Scherf et al.
# Submitted via: ExactAudioCopy v0.99pb4
#
DISCID=8608d30a
DTITLE=ศล อำพัน - ศล อำพัน
DYEAR=2009
DGENRE=Country
TTITLE0=ฝนไม่ได้ตกทุกวัน
TTITLE1=คนหน้าด้าน
TTITLE2=โสด
TTITLE3=ผู้หญิงคนแรก
TTITLE4=อดีตแฟน
TTITLE5=ยิ้มสู้
TTITLE6=ความเข้าใจ
TTITLE7=ตายรัง
TTITLE8=ลูกปืน
TTITLE9=คนไทยรักกัน
EXTD=
EXTT0=
EXTT1=
EXTT2=
EXTT3=
EXTT4=
EXTT5=
EXTT6=
EXTT7=
EXTT8=
EXTT9=
PLAYORDER=
